<svg width="24" height="24" viewBox="0 0 24 24" fill="none" xmlns="http://www.w3.org/2000/svg">
<path d="M13.67 22H13.61C13.3899 21.9867 13.1804 21.9011 13.014 21.7564C12.8476 21.6117 12.7337 21.4161 12.69 21.2L11.15 13.63C11.1108 13.4378 11.016 13.2614 10.8773 13.1227C10.7386 12.984 10.5622 12.8892 10.37 12.85L2.80001 11.31C2.58348 11.267 2.38727 11.1535 2.24197 10.9873C2.09666 10.8211 2.01044 10.6115 1.99674 10.3912C1.98304 10.1708 2.04264 9.95217 2.16623 9.76926C2.28983 9.58634 2.47048 9.44946 2.68001 9.37997L18.68 4.04997C18.8596 3.97581 19.0569 3.95558 19.2478 3.99176C19.4387 4.02793 19.615 4.11893 19.755 4.25365C19.895 4.38837 19.9928 4.56096 20.0363 4.75033C20.0798 4.9397 20.0672 5.13764 20 5.31997L14.67 21.32C14.6004 21.5269 14.465 21.7055 14.2844 21.8283C14.1039 21.951 13.8881 22.0113 13.67 22Z" fill="#FFF"/>
</svg>
