<svg width="24" height="24" viewBox="0 0 24 24" fill="#FFF" xmlns="http://www.w3.org/2000/svg">
<path d="M17.56 21.0001C17.4001 21.0007 17.2423 20.963 17.1 20.8901L12 18.2201L6.9 20.8901C6.73439 20.9772 6.54767 21.016 6.36107 21.0023C6.17447 20.9885 5.99547 20.9227 5.84442 20.8123C5.69337 20.7019 5.57633 20.5513 5.50661 20.3776C5.43688 20.204 5.41727 20.0143 5.44999 19.8301L6.44999 14.2001L2.32999 10.2001C2.20145 10.0718 2.11027 9.91095 2.06622 9.73477C2.02218 9.5586 2.02694 9.37376 2.07999 9.20008C2.13795 9.02236 2.24457 8.86443 2.38774 8.74424C2.53092 8.62404 2.70492 8.54639 2.88999 8.52008L8.59 7.69008L11.1 2.56008C11.1819 2.39101 11.3097 2.24842 11.4689 2.14866C11.6281 2.04889 11.8121 1.99597 12 1.99597C12.1879 1.99597 12.3719 2.04889 12.5311 2.14866C12.6903 2.24842 12.8181 2.39101 12.9 2.56008L15.44 7.68008L21.14 8.51008C21.3251 8.53639 21.4991 8.61404 21.6422 8.73424C21.7854 8.85444 21.892 9.01236 21.95 9.19008C22.0031 9.36376 22.0078 9.5486 21.9638 9.72477C21.9197 9.90095 21.8285 10.0618 21.7 10.1901L17.58 14.1901L18.58 19.8201C18.6157 20.0076 18.597 20.2013 18.5261 20.3785C18.4552 20.5557 18.3351 20.7089 18.18 20.8201C17.9989 20.947 17.7809 21.0103 17.56 21.0001V21.0001Z" fill="#FFF"/>
</svg>
